<svg xmlns="http://www.w3.org/2000/svg" xmlns:xlink="http://www.w3.org/1999/xlink" width="500" zoomAndPan="magnify" viewBox="0 0 375 374.999991" height="500" preserveAspectRatio="xMidYMid meet" version="1.0">

    <defs>

        <g/>

    </defs>

    <g fill="#000000" fill-opacity="1">

        <g transform="translate(85.217269, 295.095353)">

            <g>

                <path d="M 131.25 3.125 C 115.625 3.125 100.988281 0.207031 87.34375 -5.625 C 73.695312 -11.457031 61.769531 -19.476562 51.5625 -29.6875 C 41.351562 -39.894531 33.332031 -51.820312 27.5 -65.46875 C 21.664062 -79.113281 18.75 -93.75 18.75 -109.375 C 18.75 -125 21.664062 -139.632812 27.5 -153.28125 C 33.332031 -166.925781 41.351562 -178.851562 51.5625 -189.0625 C 61.769531 -199.269531 73.695312 -207.289062 87.34375 -213.125 C 100.988281 -218.957031 115.625 -221.875 131.25 -221.875 C 146.875 -221.875 161.507812 -218.957031 175.15625 -213.125 C 188.800781 -207.289062 200.726562 -199.269531 210.9375 -189.0625 C 221.144531 -178.851562 229.164062 -166.925781 235 -153.28125 C 240.832031 -139.632812 243.75 -125 243.75 -109.375 C 243.75 -93.75 240.832031 -79.113281 235 -65.46875 C 229.164062 -51.820312 221.144531 -39.894531 210.9375 -29.6875 C 200.726562 -19.476562 188.800781 -11.457031 175.15625 -5.625 C 161.507812 0.207031 146.875 3.125 131.25 3.125 Z M 131.25 -18.75 C 143.75 -18.75 155.414062 -21.039062 166.25 -25.625 C 177.082031 -30.207031 186.507812 -36.5625 194.53125 -44.6875 C 202.550781 -52.8125 208.851562 -62.394531 213.4375 -73.4375 C 218.019531 -84.476562 220.3125 -96.457031 220.3125 -109.375 C 220.3125 -122.289062 218.019531 -134.269531 213.4375 -145.3125 C 208.851562 -156.351562 202.550781 -165.9375 194.53125 -174.0625 C 186.507812 -182.1875 177.082031 -188.539062 166.25 -193.125 C 155.414062 -197.707031 143.75 -200 131.25 -200 C 118.75 -200 107.082031 -197.707031 96.25 -193.125 C 85.414062 -188.539062 75.988281 -182.1875 67.96875 -174.0625 C 59.945312 -165.9375 53.644531 -156.351562 49.0625 -145.3125 C 44.476562 -134.269531 42.1875 -122.289062 42.1875 -109.375 C 42.1875 -96.457031 44.476562 -84.476562 49.0625 -73.4375 C 53.644531 -62.394531 59.945312 -52.8125 67.96875 -44.6875 C 75.988281 -36.5625 85.414062 -30.207031 96.25 -25.625 C 107.082031 -21.039062 118.75 -18.75 131.25 -18.75 Z M 131.25 -18.75 "/>

            </g>

        </g>

    </g>

    <g fill="#ffffff" fill-opacity="1">
    
        <g transform="translate(73.468008, 295.095353)">

            <g>

                <path d="M 32.8125 -218.75 L 56.25 -218.75 L 56.25 0 L 32.8125 0 Z M 32.8125 -218.75 "/>

            </g>

        </g>

    </g>

    <g fill="#000000" fill-opacity="1">

    <g transform="translate(50.030507, 295.095353)">

    <g>

    <path d="M 32.8125 -218.75 L 56.25 -218.75 L 56.25 0 L 32.8125 0 Z M 32.8125 -218.75 "/>

    </g>

    </g>

    </g>

</svg>