<svg xmlns="http://www.w3.org/2000/svg" xmlns:xlink="http://www.w3.org/1999/xlink" width="500" zoomAndPan="magnify" viewBox="0 0 375 374.999991" height="500" preserveAspectRatio="xMidYMid meet" version="1.0"><defs><g/></defs><g fill="#ffffff" fill-opacity="1"><g transform="translate(97.031249, 273.632796)"><g><path d="M 118.125 2.8125 C 104.0625 2.8125 90.890625 0.1875 78.609375 -5.0625 C 66.328125 -10.3125 55.59375 -17.53125 46.40625 -26.71875 C 37.21875 -35.90625 30 -46.640625 24.75 -58.921875 C 19.5 -71.203125 16.875 -84.375 16.875 -98.4375 C 16.875 -112.5 19.5 -125.671875 24.75 -137.953125 C 30 -150.234375 37.21875 -160.96875 46.40625 -170.15625 C 55.59375 -179.34375 66.328125 -186.5625 78.609375 -191.8125 C 90.890625 -197.0625 104.0625 -199.6875 118.125 -199.6875 C 132.1875 -199.6875 145.359375 -197.0625 157.640625 -191.8125 C 169.921875 -186.5625 180.65625 -179.34375 189.84375 -170.15625 C 199.03125 -160.96875 206.25 -150.234375 211.5 -137.953125 C 216.75 -125.671875 219.375 -112.5 219.375 -98.4375 C 219.375 -84.375 216.75 -71.203125 211.5 -58.921875 C 206.25 -46.640625 199.03125 -35.90625 189.84375 -26.71875 C 180.65625 -17.53125 169.921875 -10.3125 157.640625 -5.0625 C 145.359375 0.1875 132.1875 2.8125 118.125 2.8125 Z M 118.125 -16.875 C 129.375 -16.875 139.875 -18.9375 149.625 -23.0625 C 159.375 -27.1875 167.859375 -32.90625 175.078125 -40.21875 C 182.296875 -47.53125 187.96875 -56.15625 192.09375 -66.09375 C 196.21875 -76.03125 198.28125 -86.8125 198.28125 -98.4375 C 198.28125 -110.0625 196.21875 -120.84375 192.09375 -130.78125 C 187.96875 -140.71875 182.296875 -149.34375 175.078125 -156.65625 C 167.859375 -163.96875 159.375 -169.6875 149.625 -173.8125 C 139.875 -177.9375 129.375 -180 118.125 -180 C 106.875 -180 96.375 -177.9375 86.625 -173.8125 C 76.875 -169.6875 68.390625 -163.96875 61.171875 -156.65625 C 53.953125 -149.34375 48.28125 -140.71875 44.15625 -130.78125 C 40.03125 -120.84375 37.96875 -110.0625 37.96875 -98.4375 C 37.96875 -86.8125 40.03125 -76.03125 44.15625 -66.09375 C 48.28125 -56.15625 53.953125 -47.53125 61.171875 -40.21875 C 68.390625 -32.90625 76.875 -27.1875 86.625 -23.0625 C 96.375 -18.9375 106.875 -16.875 118.125 -16.875 Z M 118.125 -16.875 "/></g></g></g><g fill="#000000" fill-opacity="1"><g transform="translate(86.456909, 273.632796)"><g><path d="M 29.53125 -196.875 L 50.625 -196.875 L 50.625 0 L 29.53125 0 Z M 29.53125 -196.875 "/></g></g></g><g fill="#ffffff" fill-opacity="1"><g transform="translate(65.36316, 273.632796)"><g><path d="M 29.53125 -196.875 L 50.625 -196.875 L 50.625 0 L 29.53125 0 Z M 29.53125 -196.875 "/></g></g></g><g fill="#ffffff" fill-opacity="1"><g transform="translate(81.143525, 317.425176)"><g><path d="M 7.875 0.28125 C 6.75 0.28125 5.769531 0.128906 4.9375 -0.171875 C 4.101562 -0.472656 3.414062 -0.8125 2.875 -1.1875 C 2.226562 -1.613281 1.691406 -2.109375 1.265625 -2.671875 L 2.53125 -4.109375 C 2.882812 -3.640625 3.316406 -3.234375 3.828125 -2.890625 C 4.253906 -2.578125 4.804688 -2.296875 5.484375 -2.046875 C 6.160156 -1.804688 6.957031 -1.6875 7.875 -1.6875 C 9.351562 -1.6875 10.472656 -2.023438 11.234375 -2.703125 C 11.992188 -3.390625 12.375 -4.269531 12.375 -5.34375 C 12.375 -5.976562 12.21875 -6.5 11.90625 -6.90625 C 11.601562 -7.3125 11.203125 -7.65625 10.703125 -7.9375 C 10.203125 -8.21875 9.632812 -8.453125 9 -8.640625 C 8.363281 -8.835938 7.707031 -9.039062 7.03125 -9.25 C 6.351562 -9.457031 5.695312 -9.6875 5.0625 -9.9375 C 4.425781 -10.195312 3.859375 -10.523438 3.359375 -10.921875 C 2.859375 -11.328125 2.453125 -11.820312 2.140625 -12.40625 C 1.835938 -13 1.6875 -13.738281 1.6875 -14.625 C 1.6875 -15.332031 1.832031 -16.007812 2.125 -16.65625 C 2.414062 -17.3125 2.835938 -17.878906 3.390625 -18.359375 C 3.941406 -18.847656 4.601562 -19.238281 5.375 -19.53125 C 6.15625 -19.820312 7.035156 -19.96875 8.015625 -19.96875 C 8.972656 -19.96875 9.804688 -19.835938 10.515625 -19.578125 C 11.234375 -19.316406 11.832031 -19.023438 12.3125 -18.703125 C 12.875 -18.328125 13.363281 -17.90625 13.78125 -17.4375 L 12.375 -16.03125 C 12.070312 -16.382812 11.707031 -16.710938 11.28125 -17.015625 C 10.90625 -17.253906 10.445312 -17.476562 9.90625 -17.6875 C 9.375 -17.894531 8.742188 -18 8.015625 -18 C 7.335938 -18 6.734375 -17.90625 6.203125 -17.71875 C 5.679688 -17.53125 5.242188 -17.28125 4.890625 -16.96875 C 4.535156 -16.664062 4.265625 -16.3125 4.078125 -15.90625 C 3.890625 -15.5 3.796875 -15.070312 3.796875 -14.625 C 3.796875 -13.78125 4.054688 -13.128906 4.578125 -12.671875 C 5.109375 -12.210938 5.769531 -11.832031 6.5625 -11.53125 C 7.363281 -11.226562 8.222656 -10.953125 9.140625 -10.703125 C 10.054688 -10.460938 10.910156 -10.140625 11.703125 -9.734375 C 12.503906 -9.335938 13.164062 -8.796875 13.6875 -8.109375 C 14.21875 -7.429688 14.484375 -6.507812 14.484375 -5.34375 C 14.484375 -4.539062 14.335938 -3.796875 14.046875 -3.109375 C 13.753906 -2.421875 13.328125 -1.820312 12.765625 -1.3125 C 12.203125 -0.8125 11.507812 -0.421875 10.6875 -0.140625 C 9.863281 0.140625 8.925781 0.28125 7.875 0.28125 Z M 7.875 0.28125 "/></g></g></g><g fill="#ffffff" fill-opacity="1"><g transform="translate(110.534191, 317.425176)"><g><path d="M 2.953125 -19.6875 L 16.453125 -19.6875 L 16.453125 -17.71875 L 5.0625 -17.71875 L 5.0625 -11.25 L 14.203125 -11.25 L 14.203125 -9.28125 L 5.0625 -9.28125 L 5.0625 -1.96875 L 16.734375 -1.96875 L 16.734375 0 L 2.953125 0 Z M 2.953125 -19.6875 "/></g></g></g><g fill="#ffffff" fill-opacity="1"><g transform="translate(142.034226, 317.425176)"><g><path d="M 11.8125 0.28125 C 10.40625 0.28125 9.085938 0.0195312 7.859375 -0.5 C 6.628906 -1.03125 5.554688 -1.753906 4.640625 -2.671875 C 3.722656 -3.585938 3 -4.660156 2.46875 -5.890625 C 1.945312 -7.117188 1.6875 -8.4375 1.6875 -9.84375 C 1.6875 -11.25 1.945312 -12.566406 2.46875 -13.796875 C 3 -15.023438 3.722656 -16.097656 4.640625 -17.015625 C 5.554688 -17.929688 6.628906 -18.648438 7.859375 -19.171875 C 9.085938 -19.703125 10.40625 -19.96875 11.8125 -19.96875 C 13.164062 -19.96875 14.335938 -19.75 15.328125 -19.3125 C 16.316406 -18.882812 17.148438 -18.421875 17.828125 -17.921875 C 18.597656 -17.316406 19.265625 -16.640625 19.828125 -15.890625 L 18.421875 -14.625 C 17.972656 -15.257812 17.429688 -15.820312 16.796875 -16.3125 C 16.242188 -16.738281 15.554688 -17.125 14.734375 -17.46875 C 13.910156 -17.820312 12.9375 -18 11.8125 -18 C 10.6875 -18 9.632812 -17.789062 8.65625 -17.375 C 7.6875 -16.96875 6.835938 -16.394531 6.109375 -15.65625 C 5.390625 -14.925781 4.820312 -14.066406 4.40625 -13.078125 C 4 -12.085938 3.796875 -11.007812 3.796875 -9.84375 C 3.796875 -8.675781 4 -7.597656 4.40625 -6.609375 C 4.820312 -5.617188 5.390625 -4.753906 6.109375 -4.015625 C 6.835938 -3.285156 7.6875 -2.710938 8.65625 -2.296875 C 9.632812 -1.890625 10.6875 -1.6875 11.8125 -1.6875 C 12.9375 -1.6875 13.921875 -1.859375 14.765625 -2.203125 C 15.609375 -2.554688 16.3125 -2.945312 16.875 -3.375 C 17.53125 -3.863281 18.09375 -4.425781 18.5625 -5.0625 L 19.96875 -3.796875 C 19.382812 -3.023438 18.691406 -2.34375 17.890625 -1.75 C 17.191406 -1.238281 16.34375 -0.769531 15.34375 -0.34375 C 14.34375 0.0703125 13.164062 0.28125 11.8125 0.28125 Z M 11.8125 0.28125 "/></g></g></g><g fill="#ffffff" fill-opacity="1"><g transform="translate(176.628028, 317.425176)"><g><path d="M 10.6875 0.28125 C 9.5625 0.28125 8.507812 0.078125 7.53125 -0.328125 C 6.5625 -0.742188 5.710938 -1.3125 4.984375 -2.03125 C 4.265625 -2.757812 3.695312 -3.609375 3.28125 -4.578125 C 2.875 -5.554688 2.671875 -6.609375 2.671875 -7.734375 L 2.671875 -19.6875 L 4.78125 -19.6875 L 4.78125 -7.734375 C 4.78125 -6.847656 4.929688 -6.035156 5.234375 -5.296875 C 5.535156 -4.554688 5.945312 -3.921875 6.46875 -3.390625 C 6.988281 -2.859375 7.609375 -2.441406 8.328125 -2.140625 C 9.054688 -1.835938 9.84375 -1.6875 10.6875 -1.6875 C 11.53125 -1.6875 12.3125 -1.835938 13.03125 -2.140625 C 13.757812 -2.441406 14.382812 -2.859375 14.90625 -3.390625 C 15.425781 -3.921875 15.835938 -4.554688 16.140625 -5.296875 C 16.441406 -6.035156 16.59375 -6.847656 16.59375 -7.734375 L 16.59375 -19.6875 L 18.703125 -19.6875 L 18.703125 -7.734375 C 18.703125 -6.609375 18.492188 -5.554688 18.078125 -4.578125 C 17.671875 -3.609375 17.101562 -2.757812 16.375 -2.03125 C 15.65625 -1.3125 14.804688 -0.742188 13.828125 -0.328125 C 12.859375 0.078125 11.8125 0.28125 10.6875 0.28125 Z M 10.6875 0.28125 "/></g></g></g><g fill="#ffffff" fill-opacity="1"><g transform="translate(211.503059, 317.425176)"><g><path d="M 2.953125 -19.6875 L 10.828125 -19.6875 C 11.710938 -19.6875 12.523438 -19.535156 13.265625 -19.234375 C 14.003906 -18.929688 14.640625 -18.519531 15.171875 -18 C 15.703125 -17.476562 16.117188 -16.851562 16.421875 -16.125 C 16.722656 -15.40625 16.875 -14.625 16.875 -13.78125 C 16.875 -12.65625 16.65625 -11.726562 16.21875 -11 C 15.789062 -10.28125 15.328125 -9.707031 14.828125 -9.28125 C 14.222656 -8.789062 13.546875 -8.414062 12.796875 -8.15625 L 17.4375 0 L 15.046875 0 L 10.6875 -7.875 L 5.0625 -7.875 L 5.0625 0 L 2.953125 0 Z M 10.828125 -9.84375 C 12.023438 -9.84375 12.976562 -10.195312 13.6875 -10.90625 C 14.40625 -11.625 14.765625 -12.582031 14.765625 -13.78125 C 14.765625 -14.976562 14.40625 -15.929688 13.6875 -16.640625 C 12.976562 -17.359375 12.023438 -17.71875 10.828125 -17.71875 L 5.0625 -17.71875 L 5.0625 -9.84375 Z M 10.828125 -9.84375 "/></g></g></g><g fill="#ffffff" fill-opacity="1"><g transform="translate(243.987466, 317.425176)"><g><path d="M 2.953125 -19.6875 L 5.0625 -19.6875 L 5.0625 0 L 2.953125 0 Z M 2.953125 -19.6875 "/></g></g></g><g fill="#ffffff" fill-opacity="1"><g transform="translate(265.503113, 317.425176)"><g><path d="M 6.75 -17.71875 L 0.5625 -17.71875 L 0.5625 -19.6875 L 15.046875 -19.6875 L 15.046875 -17.71875 L 8.859375 -17.71875 L 8.859375 0 L 6.75 0 Z M 6.75 -17.71875 "/></g></g></g><g fill="#ffffff" fill-opacity="1"><g transform="translate(294.612522, 317.425176)"><g><path d="M 7.875 -6.890625 L 0.5625 -19.6875 L 2.953125 -19.6875 L 8.859375 -9.140625 L 9 -9.140625 L 14.90625 -19.6875 L 17.296875 -19.6875 L 9.984375 -6.890625 L 9.984375 0 L 7.875 0 Z M 7.875 -6.890625 "/></g></g></g></svg>